<svg xmlns="http://www.w3.org/2000/svg" width="25" height="24" viewBox="0 0 25 24" fill="none">
  <path fill-rule="evenodd" clip-rule="evenodd" d="M12.4814 18C15.7951 18 18.4814 15.3137 18.4814 12C18.4814 8.68629 15.7951 6 12.4814 6C9.16774 6 6.48145 8.68629 6.48145 12C6.48145 15.3137 9.16774 18 12.4814 18ZM12.4814 16C14.6905 16 16.4814 14.2091 16.4814 12C16.4814 9.79086 14.6905 8 12.4814 8C10.2723 8 8.48145 9.79086 8.48145 12C8.48145 14.2091 10.2723 16 12.4814 16Z" fill="white"/>
  <path d="M18.4814 5C17.9291 5 17.4814 5.44772 17.4814 6C17.4814 6.55228 17.9291 7 18.4814 7C19.0337 7 19.4814 6.55228 19.4814 6C19.4814 5.44772 19.0337 5 18.4814 5Z" fill="white"/>
  <path fill-rule="evenodd" clip-rule="evenodd" d="M2.13541 4.27606C1.48145 5.55953 1.48145 7.23969 1.48145 10.6V13.4C1.48145 16.7603 1.48145 18.4405 2.13541 19.7239C2.71065 20.8529 3.62853 21.7708 4.75751 22.346C6.04098 23 7.72114 23 11.0814 23H13.8814C17.2417 23 18.9219 23 20.2053 22.346C21.3343 21.7708 22.2522 20.8529 22.8274 19.7239C23.4814 18.4405 23.4814 16.7603 23.4814 13.4V10.6C23.4814 7.23969 23.4814 5.55953 22.8274 4.27606C22.2522 3.14708 21.3343 2.2292 20.2053 1.65396C18.9219 1 17.2417 1 13.8814 1H11.0814C7.72114 1 6.04098 1 4.75751 1.65396C3.62853 2.2292 2.71065 3.14708 2.13541 4.27606ZM13.8814 3H11.0814C9.36829 3 8.2037 3.00156 7.30353 3.0751C6.42669 3.14674 5.97829 3.27659 5.66549 3.43597C4.91284 3.81947 4.30092 4.43139 3.91742 5.18404C3.75804 5.49684 3.62819 5.94524 3.55655 6.82208C3.48301 7.72225 3.48145 8.88684 3.48145 10.6V13.4C3.48145 15.1132 3.48301 16.2777 3.55655 17.1779C3.62819 18.0548 3.75804 18.5032 3.91742 18.816C4.30092 19.5686 4.91284 20.1805 5.66549 20.564C5.97829 20.7234 6.42669 20.8533 7.30353 20.9249C8.2037 20.9984 9.36829 21 11.0814 21H13.8814C15.5946 21 16.7591 20.9984 17.6593 20.9249C18.5362 20.8533 18.9846 20.7234 19.2974 20.564C20.05 20.1805 20.6619 19.5686 21.0454 18.816C21.2048 18.5032 21.3347 18.0548 21.4063 17.1779C21.4798 16.2777 21.4814 15.1132 21.4814 13.4V10.6C21.4814 8.88684 21.4798 7.72225 21.4063 6.82208C21.3347 5.94524 21.2048 5.49684 21.0454 5.18404C20.6619 4.43139 20.05 3.81947 19.2974 3.43597C18.9846 3.27659 18.5362 3.14674 17.6593 3.0751C16.7591 3.00156 15.5946 3 13.8814 3Z" fill="white"/>
</svg>