<svg xmlns="http://www.w3.org/2000/svg" width="25" height="24" viewBox="0 0 25 24" fill="none">
  <g clip-path="url(#clip0_336_4103)">
    <path fill-rule="evenodd" clip-rule="evenodd" d="M5.94257 23.4478V7.99946H0.808398V23.4478H5.94257V23.4478ZM3.37602 5.89103C5.16585 5.89103 6.28077 4.70378 6.28077 3.22136C6.24693 1.70598 5.16585 0.552246 3.40959 0.552246C1.65304 0.552293 0.504883 1.70603 0.504883 3.2214C0.504883 4.70382 1.6192 5.89107 3.34223 5.89107L3.37602 5.89103ZM8.78413 23.4478C8.78413 23.4478 8.85149 9.44893 8.78413 7.99951H13.9191V10.2399H13.885C14.5602 9.18564 15.7766 7.63675 18.5463 7.63675C21.9253 7.63675 24.458 9.8447 24.458 14.5899V23.4479H19.3238V15.1834C19.3238 13.1068 18.581 11.6898 16.7224 11.6898C15.3043 11.6898 14.4591 12.6451 14.0879 13.5685C13.9521 13.8972 13.9191 14.3589 13.9191 14.8206V23.4478H8.78413Z" fill="white"/>
  </g>
  <defs>
    <clipPath id="clip0_336_4103">
      <rect width="24" height="24" fill="white" transform="translate(0.481445)"/>
    </clipPath>
  </defs>
</svg>